<?xml version="1.0" encoding="UTF-8" standalone="no"?><svg xmlns="http://www.w3.org/2000/svg" xmlns:xlink="http://www.w3.org/1999/xlink" clip-rule="evenodd" stroke-miterlimit="10" viewBox="0 0 566 75"><desc>SVG generated by Keynote</desc><defs></defs><g transform="matrix(1.00, 0.00, -0.00, -1.00, 0.0, 75.0)"><g><clipPath id="clip0x6080004a5820"><path d="M 0.0 12.6 L 16.8 12.6 L 16.8 29.4 L 0.0 29.4 Z M 0.0 12.6 "></path></clipPath><g clip-path="url(#clip0x6080004a5820)"><path d="M 7.6 28.5 L 7.6 24.0 L 5.4 27.9 L 3.9 27.1 L 6.1 23.2 L 2.3 25.4 L 1.4 24.0 L 5.3 21.7 L 0.8 21.7 L 0.8 20.1 L 5.3 20.1 L 1.4 17.8 L 2.3 16.4 L 6.1 18.6 L 3.9 14.7 L 5.4 13.9 L 7.6 17.8 L 7.6 13.3 L 9.3 13.3 L 9.3 17.8 L 11.5 13.9 L 13.0 14.7 L 10.7 18.6 L 14.6 16.4 L 15.4 17.8 L 11.6 20.1 L 16.0 20.1 L 16.0 21.7 L 11.6 21.7 L 15.4 24.0 L 14.6 25.4 L 10.7 23.2 L 13.0 27.1 L 11.5 27.9 L 9.3 24.0 L 9.3 28.5 Z M 7.6 28.5 " fill="#497493"></path></g></g><text xml:space="preserve" font-family="HelveticaNeue,Helvetica Neue" font-size="36.0" fill="#727272" transform="matrix(1.00, 0.00, -0.00, -1.00, 35.0, 8.7)">G</text><text xml:space="preserve" font-family="HelveticaNeue,Helvetica Neue" font-size="36.0" fill="#727272" transform="matrix(1.00, 0.00, -0.00, -1.00, 62.3, 8.7)">a</text><text xml:space="preserve" font-family="HelveticaNeue,Helvetica Neue" font-size="36.0" fill="#727272" transform="matrix(1.00, 0.00, -0.00, -1.00, 81.7, 8.7)">m</text><text xml:space="preserve" font-family="HelveticaNeue,Helvetica Neue" font-size="36.0" fill="#727272" transform="matrix(1.00, 0.00, -0.00, -1.00, 112.4, 8.7)">e</text><text xml:space="preserve" font-family="HelveticaNeue,Helvetica Neue" font-size="36.0" fill="#727272" transform="matrix(1.00, 0.00, -0.00, -1.00, 131.7, 8.7)">s</text><text xml:space="preserve" font-family="HelveticaNeue,Helvetica Neue" font-size="36.0" fill="#727272" transform="matrix(1.00, 0.00, -0.00, -1.00, 149.7, 8.7)"> </text><text xml:space="preserve" font-family="HelveticaNeue,Helvetica Neue" font-size="36.0" fill="#727272" transform="matrix(1.00, 0.00, -0.00, -1.00, 159.7, 8.7)">-</text><text xml:space="preserve" font-family="HelveticaNeue,Helvetica Neue" font-size="36.0" fill="#727272" transform="matrix(1.00, 0.00, -0.00, -1.00, 173.7, 8.7)"> </text><text xml:space="preserve" font-family="HelveticaNeue,Helvetica Neue" font-size="36.0" fill="#727272" transform="matrix(1.00, 0.00, -0.00, -1.00, 183.7, 8.7)">c</text><text xml:space="preserve" font-family="HelveticaNeue,Helvetica Neue" font-size="36.0" fill="#727272" transform="matrix(1.00, 0.00, -0.00, -1.00, 203.0, 8.7)">h</text><text xml:space="preserve" font-family="HelveticaNeue,Helvetica Neue" font-size="36.0" fill="#727272" transform="matrix(1.00, 0.00, -0.00, -1.00, 223.1, 8.7)">r</text><text xml:space="preserve" font-family="HelveticaNeue,Helvetica Neue" font-size="36.0" fill="#727272" transform="matrix(1.00, 0.00, -0.00, -1.00, 234.4, 8.7)">o</text><text xml:space="preserve" font-family="HelveticaNeue,Helvetica Neue" font-size="36.0" fill="#727272" transform="matrix(1.00, 0.00, -0.00, -1.00, 255.1, 8.7)">m</text><text xml:space="preserve" font-family="HelveticaNeue,Helvetica Neue" font-size="36.0" fill="#727272" transform="matrix(1.00, 0.00, -0.00, -1.00, 285.8, 8.7)">e</text><text xml:space="preserve" font-family="HelveticaNeue,Helvetica Neue" font-size="36.0" fill="#727272" transform="matrix(1.00, 0.00, -0.00, -1.00, 305.1, 8.7)">.</text><text xml:space="preserve" font-family="HelveticaNeue,Helvetica Neue" font-size="36.0" fill="#727272" transform="matrix(1.00, 0.00, -0.00, -1.00, 315.1, 8.7)">a</text><text xml:space="preserve" font-family="HelveticaNeue,Helvetica Neue" font-size="36.0" fill="#727272" transform="matrix(1.00, 0.00, -0.00, -1.00, 334.4, 8.7)">n</text><text xml:space="preserve" font-family="HelveticaNeue,Helvetica Neue" font-size="36.0" fill="#727272" transform="matrix(1.00, 0.00, -0.00, -1.00, 354.5, 8.7)">g</text><text xml:space="preserve" font-family="HelveticaNeue,Helvetica Neue" font-size="36.0" fill="#727272" transform="matrix(1.00, 0.00, -0.00, -1.00, 375.1, 8.7)">r</text><text xml:space="preserve" font-family="HelveticaNeue,Helvetica Neue" font-size="36.0" fill="#727272" transform="matrix(1.00, 0.00, -0.00, -1.00, 387.1, 8.7)">y</text><text xml:space="preserve" font-family="HelveticaNeue,Helvetica Neue" font-size="36.0" fill="#727272" transform="matrix(1.00, 0.00, -0.00, -1.00, 405.1, 8.7)">b</text><text xml:space="preserve" font-family="HelveticaNeue,Helvetica Neue" font-size="36.0" fill="#727272" transform="matrix(1.00, 0.00, -0.00, -1.00, 426.5, 8.7)">i</text><text xml:space="preserve" font-family="HelveticaNeue,Helvetica Neue" font-size="36.0" fill="#727272" transform="matrix(1.00, 0.00, -0.00, -1.00, 434.5, 8.7)">r</text><text xml:space="preserve" font-family="HelveticaNeue,Helvetica Neue" font-size="36.0" fill="#727272" transform="matrix(1.00, 0.00, -0.00, -1.00, 445.8, 8.7)">d</text><text xml:space="preserve" font-family="HelveticaNeue,Helvetica Neue" font-size="36.0" fill="#727272" transform="matrix(1.00, 0.00, -0.00, -1.00, 467.1, 8.7)">s</text><text xml:space="preserve" font-family="HelveticaNeue,Helvetica Neue" font-size="36.0" fill="#727272" transform="matrix(1.00, 0.00, -0.00, -1.00, 485.1, 8.7)">.</text><text xml:space="preserve" font-family="HelveticaNeue,Helvetica Neue" font-size="36.0" fill="#727272" transform="matrix(1.00, 0.00, -0.00, -1.00, 495.2, 8.7)">c</text><text xml:space="preserve" font-family="HelveticaNeue,Helvetica Neue" font-size="36.0" fill="#727272" transform="matrix(1.00, 0.00, -0.00, -1.00, 514.5, 8.7)">o</text><text xml:space="preserve" font-family="HelveticaNeue,Helvetica Neue" font-size="36.0" fill="#727272" transform="matrix(1.00, 0.00, -0.00, -1.00, 535.1, 8.7)">m</text><g><clipPath id="clip0x6080004a66c0"><path d="M 182.7 3.2 L 565.9 3.2 L 565.9 7.0 L 182.7 7.0 Z M 182.7 3.2 "></path></clipPath><g clip-path="url(#clip0x6080004a66c0)"><path d="M 187.7 166.9 L 569.9 166.9 " fill="none" stroke="#727272" stroke-width="1.80" transform="matrix(1.00, 0.00, 0.00, -1.00, -4.0, 172.0)"></path></g></g></g></svg>