<?xml version="1.0" encoding="UTF-8" standalone="no"?><svg xmlns="http://www.w3.org/2000/svg" xmlns:xlink="http://www.w3.org/1999/xlink" clip-rule="evenodd" stroke-miterlimit="10" viewBox="0 0 257 55"><desc>SVG generated by Keynote</desc><defs></defs><g transform="matrix(1.00, 0.00, -0.00, -1.00, 0.0, 55.0)"><text xml:space="preserve" font-family="HelveticaNeue-Light,Helvetica Neue" font-size="72.0" fill="#558AAA" transform="matrix(1.00, 0.00, -0.00, -1.00, -4.0, 2.4)">L</text><text xml:space="preserve" font-family="HelveticaNeue-Light,Helvetica Neue" font-size="72.0" fill="#558AAA" transform="matrix(1.00, 0.00, -0.00, -1.00, 34.7, 2.4)">i</text><text xml:space="preserve" font-family="HelveticaNeue-Light,Helvetica Neue" font-size="72.0" fill="#558AAA" transform="matrix(1.00, 0.00, -0.00, -1.00, 48.0, 2.4)">b</text><text xml:space="preserve" font-family="HelveticaNeue-Light,Helvetica Neue" font-size="72.0" fill="#558AAA" transform="matrix(1.00, 0.00, -0.00, -1.00, 89.3, 2.4)">r</text><text xml:space="preserve" font-family="HelveticaNeue-Light,Helvetica Neue" font-size="72.0" fill="#558AAA" transform="matrix(1.00, 0.00, -0.00, -1.00, 112.0, 2.4)">a</text><text xml:space="preserve" font-family="HelveticaNeue-Light,Helvetica Neue" font-size="72.0" fill="#558AAA" transform="matrix(1.00, 0.00, -0.00, -1.00, 149.4, 2.4)">r</text><text xml:space="preserve" font-family="HelveticaNeue-Light,Helvetica Neue" font-size="72.0" fill="#558AAA" transform="matrix(1.00, 0.00, -0.00, -1.00, 172.0, 2.4)">i</text><text xml:space="preserve" font-family="HelveticaNeue-Light,Helvetica Neue" font-size="72.0" fill="#558AAA" transform="matrix(1.00, 0.00, -0.00, -1.00, 185.4, 2.4)">e</text><text xml:space="preserve" font-family="HelveticaNeue-Light,Helvetica Neue" font-size="72.0" fill="#558AAA" transform="matrix(1.00, 0.00, -0.00, -1.00, 222.7, 2.4)">s</text></g></svg>