<?xml version="1.0" encoding="UTF-8" standalone="no"?><svg xmlns="http://www.w3.org/2000/svg" xmlns:xlink="http://www.w3.org/1999/xlink" clip-rule="evenodd" stroke-miterlimit="10" viewBox="0 0 694 43"><desc>SVG generated by Keynote</desc><defs></defs><g transform="matrix(1.00, 0.00, -0.00, -1.00, 0.0, 43.0)"><g><clipPath id="clip0x6100004afc60"><path d="M 0.0 12.6 L 16.8 12.6 L 16.8 29.4 L 0.0 29.4 Z M 0.0 12.6 "></path></clipPath><g clip-path="url(#clip0x6100004afc60)"><path d="M 7.6 28.5 L 7.6 24.0 L 5.4 27.9 L 3.9 27.1 L 6.1 23.2 L 2.3 25.4 L 1.4 24.0 L 5.3 21.7 L 0.8 21.7 L 0.8 20.1 L 5.3 20.1 L 1.4 17.8 L 2.3 16.4 L 6.1 18.6 L 3.9 14.7 L 5.4 13.9 L 7.6 17.8 L 7.6 13.3 L 9.3 13.3 L 9.3 17.8 L 11.5 13.9 L 13.0 14.7 L 10.7 18.6 L 14.6 16.4 L 15.4 17.8 L 11.6 20.1 L 16.0 20.1 L 16.0 21.7 L 11.6 21.7 L 15.4 24.0 L 14.6 25.4 L 10.7 23.2 L 13.0 27.1 L 11.5 27.9 L 9.3 24.0 L 9.3 28.5 Z M 7.6 28.5 " fill="#497493"></path></g></g><text xml:space="preserve" font-family="HelveticaNeue,Helvetica Neue" font-size="36.0" fill="#727272" transform="matrix(1.00, 0.00, -0.00, -1.00, 35.0, 8.7)">D</text><text xml:space="preserve" font-family="HelveticaNeue,Helvetica Neue" font-size="36.0" fill="#727272" transform="matrix(1.00, 0.00, -0.00, -1.00, 60.3, 8.7)">e</text><text xml:space="preserve" font-family="HelveticaNeue,Helvetica Neue" font-size="36.0" fill="#727272" transform="matrix(1.00, 0.00, -0.00, -1.00, 79.7, 8.7)">s</text><text xml:space="preserve" font-family="HelveticaNeue,Helvetica Neue" font-size="36.0" fill="#727272" transform="matrix(1.00, 0.00, -0.00, -1.00, 97.7, 8.7)">i</text><text xml:space="preserve" font-family="HelveticaNeue,Helvetica Neue" font-size="36.0" fill="#727272" transform="matrix(1.00, 0.00, -0.00, -1.00, 105.7, 8.7)">g</text><text xml:space="preserve" font-family="HelveticaNeue,Helvetica Neue" font-size="36.0" fill="#727272" transform="matrix(1.00, 0.00, -0.00, -1.00, 126.3, 8.7)">n</text><text xml:space="preserve" font-family="HelveticaNeue,Helvetica Neue" font-size="36.0" fill="#727272" transform="matrix(1.00, 0.00, -0.00, -1.00, 146.3, 8.7)"> </text><text xml:space="preserve" font-family="HelveticaNeue,Helvetica Neue" font-size="36.0" fill="#727272" transform="matrix(1.00, 0.00, -0.00, -1.00, 156.4, 8.7)">A</text><text xml:space="preserve" font-family="HelveticaNeue,Helvetica Neue" font-size="36.0" fill="#727272" transform="matrix(1.00, 0.00, -0.00, -1.00, 179.7, 8.7)">c</text><text xml:space="preserve" font-family="HelveticaNeue,Helvetica Neue" font-size="36.0" fill="#727272" transform="matrix(1.00, 0.00, -0.00, -1.00, 199.0, 8.7)">c</text><text xml:space="preserve" font-family="HelveticaNeue,Helvetica Neue" font-size="36.0" fill="#727272" transform="matrix(1.00, 0.00, -0.00, -1.00, 218.3, 8.7)">e</text><text xml:space="preserve" font-family="HelveticaNeue,Helvetica Neue" font-size="36.0" fill="#727272" transform="matrix(1.00, 0.00, -0.00, -1.00, 237.7, 8.7)">n</text><text xml:space="preserve" font-family="HelveticaNeue,Helvetica Neue" font-size="36.0" fill="#727272" transform="matrix(1.00, 0.00, -0.00, -1.00, 257.7, 8.7)">t</text><text xml:space="preserve" font-family="HelveticaNeue,Helvetica Neue" font-size="36.0" fill="#727272" transform="matrix(1.00, 0.00, -0.00, -1.00, 269.0, 8.7)">s</text><text xml:space="preserve" font-family="HelveticaNeue,Helvetica Neue" font-size="36.0" fill="#727272" transform="matrix(1.00, 0.00, -0.00, -1.00, 287.0, 8.7)"> </text><text xml:space="preserve" font-family="HelveticaNeue,Helvetica Neue" font-size="36.0" fill="#727272" transform="matrix(1.00, 0.00, -0.00, -1.00, 297.0, 8.7)">/</text><text xml:space="preserve" font-family="HelveticaNeue,Helvetica Neue" font-size="36.0" fill="#727272" transform="matrix(1.00, 0.00, -0.00, -1.00, 309.0, 8.7)"> </text><text xml:space="preserve" font-family="HelveticaNeue,Helvetica Neue" font-size="36.0" fill="#727272" transform="matrix(1.00, 0.00, -0.00, -1.00, 319.0, 8.7)">P</text><text xml:space="preserve" font-family="HelveticaNeue,Helvetica Neue" font-size="36.0" fill="#727272" transform="matrix(1.00, 0.00, -0.00, -1.00, 342.4, 8.7)">r</text><text xml:space="preserve" font-family="HelveticaNeue,Helvetica Neue" font-size="36.0" fill="#727272" transform="matrix(1.00, 0.00, -0.00, -1.00, 353.7, 8.7)">e</text><text xml:space="preserve" font-family="HelveticaNeue,Helvetica Neue" font-size="36.0" fill="#727272" transform="matrix(1.00, 0.00, -0.00, -1.00, 373.0, 8.7)">s</text><text xml:space="preserve" font-family="HelveticaNeue,Helvetica Neue" font-size="36.0" fill="#727272" transform="matrix(1.00, 0.00, -0.00, -1.00, 391.0, 8.7)">e</text><text xml:space="preserve" font-family="HelveticaNeue,Helvetica Neue" font-size="36.0" fill="#727272" transform="matrix(1.00, 0.00, -0.00, -1.00, 410.4, 8.7)">n</text><text xml:space="preserve" font-family="HelveticaNeue,Helvetica Neue" font-size="36.0" fill="#727272" transform="matrix(1.00, 0.00, -0.00, -1.00, 430.4, 8.7)">t</text><text xml:space="preserve" font-family="HelveticaNeue,Helvetica Neue" font-size="36.0" fill="#727272" transform="matrix(1.00, 0.00, -0.00, -1.00, 441.7, 8.7)">a</text><text xml:space="preserve" font-family="HelveticaNeue,Helvetica Neue" font-size="36.0" fill="#727272" transform="matrix(1.00, 0.00, -0.00, -1.00, 461.1, 8.7)">t</text><text xml:space="preserve" font-family="HelveticaNeue,Helvetica Neue" font-size="36.0" fill="#727272" transform="matrix(1.00, 0.00, -0.00, -1.00, 472.4, 8.7)">i</text><text xml:space="preserve" font-family="HelveticaNeue,Helvetica Neue" font-size="36.0" fill="#727272" transform="matrix(1.00, 0.00, -0.00, -1.00, 480.4, 8.7)">o</text><text xml:space="preserve" font-family="HelveticaNeue,Helvetica Neue" font-size="36.0" fill="#727272" transform="matrix(1.00, 0.00, -0.00, -1.00, 501.1, 8.7)">n</text><text xml:space="preserve" font-family="HelveticaNeue,Helvetica Neue" font-size="36.0" fill="#727272" transform="matrix(1.00, 0.00, -0.00, -1.00, 521.1, 8.7)"> </text><text xml:space="preserve" font-family="HelveticaNeue,Helvetica Neue" font-size="36.0" fill="#727272" transform="matrix(1.00, 0.00, -0.00, -1.00, 531.1, 8.7)">-</text><text xml:space="preserve" font-family="HelveticaNeue,Helvetica Neue" font-size="36.0" fill="#727272" transform="matrix(1.00, 0.00, -0.00, -1.00, 545.1, 8.7)"> </text><text xml:space="preserve" font-family="HelveticaNeue,Helvetica Neue" font-size="36.0" fill="#727272" transform="matrix(1.00, 0.00, -0.00, -1.00, 555.1, 8.7)">a</text><text xml:space="preserve" font-family="HelveticaNeue,Helvetica Neue" font-size="36.0" fill="#727272" transform="matrix(1.00, 0.00, -0.00, -1.00, 574.4, 8.7)">c</text><text xml:space="preserve" font-family="HelveticaNeue,Helvetica Neue" font-size="36.0" fill="#727272" transform="matrix(1.00, 0.00, -0.00, -1.00, 593.8, 8.7)">k</text><text xml:space="preserve" font-family="HelveticaNeue,Helvetica Neue" font-size="36.0" fill="#727272" transform="matrix(1.00, 0.00, -0.00, -1.00, 612.4, 8.7)">o</text><text xml:space="preserve" font-family="HelveticaNeue,Helvetica Neue" font-size="36.0" fill="#727272" transform="matrix(1.00, 0.00, -0.00, -1.00, 633.1, 8.7)">.</text><text xml:space="preserve" font-family="HelveticaNeue,Helvetica Neue" font-size="36.0" fill="#727272" transform="matrix(1.00, 0.00, -0.00, -1.00, 643.1, 8.7)">n</text><text xml:space="preserve" font-family="HelveticaNeue,Helvetica Neue" font-size="36.0" fill="#727272" transform="matrix(1.00, 0.00, -0.00, -1.00, 663.1, 8.7)">e</text><text xml:space="preserve" font-family="HelveticaNeue,Helvetica Neue" font-size="36.0" fill="#727272" transform="matrix(1.00, 0.00, -0.00, -1.00, 682.5, 8.7)">t</text><g><clipPath id="clip0x6100004b0da0"><path d="M 554.1 3.2 L 693.8 3.2 L 693.8 7.0 L 554.1 7.0 Z M 554.1 3.2 "></path></clipPath><g clip-path="url(#clip0x6100004b0da0)"><path d="M 559.1 91.9 L 697.8 91.9 " fill="none" stroke="#727272" stroke-width="1.80" transform="matrix(1.00, 0.00, 0.00, -1.00, -4.0, 97.0)"></path></g></g></g></svg>