<?xml version="1.0" encoding="UTF-8" standalone="no"?><svg xmlns="http://www.w3.org/2000/svg" xmlns:xlink="http://www.w3.org/1999/xlink" clip-rule="evenodd" stroke-miterlimit="10" viewBox="0 0 816 136"><desc>SVG generated by Keynote</desc><defs></defs><g transform="matrix(1.00, 0.00, -0.00, -1.00, 0.0, 136.0)"><text xml:space="preserve" font-family="HelveticaNeue-CondensedBold,Helvetica Neue" font-weight="bold" font-size="72.0" fill="#DDDDDD" transform="matrix(1.00, 0.00, -0.00, -1.00, -1.0, 81.2)">I</text><text xml:space="preserve" font-family="HelveticaNeue-CondensedBold,Helvetica Neue" font-weight="bold" font-size="72.0" fill="#DDDDDD" transform="matrix(1.00, 0.00, -0.00, -1.00, 17.6, 81.2)">N</text><text xml:space="preserve" font-family="HelveticaNeue-CondensedBold,Helvetica Neue" font-weight="bold" font-size="72.0" fill="#DDDDDD" transform="matrix(1.00, 0.00, -0.00, -1.00, 58.9, 81.2)">T</text><text xml:space="preserve" font-family="HelveticaNeue-CondensedBold,Helvetica Neue" font-weight="bold" font-size="72.0" fill="#DDDDDD" transform="matrix(1.00, 0.00, -0.00, -1.00, 93.5, 81.2)">E</text><text xml:space="preserve" font-family="HelveticaNeue-CondensedBold,Helvetica Neue" font-weight="bold" font-size="72.0" fill="#DDDDDD" transform="matrix(1.00, 0.00, -0.00, -1.00, 128.1, 81.2)">R</text><text xml:space="preserve" font-family="HelveticaNeue-CondensedBold,Helvetica Neue" font-weight="bold" font-size="72.0" fill="#DDDDDD" transform="matrix(1.00, 0.00, -0.00, -1.00, 168.1, 81.2)">A</text><text xml:space="preserve" font-family="HelveticaNeue-CondensedBold,Helvetica Neue" font-weight="bold" font-size="72.0" fill="#DDDDDD" transform="matrix(1.00, 0.00, -0.00, -1.00, 208.2, 81.2)">C</text><text xml:space="preserve" font-family="HelveticaNeue-CondensedBold,Helvetica Neue" font-weight="bold" font-size="72.0" fill="#DDDDDD" transform="matrix(1.00, 0.00, -0.00, -1.00, 246.8, 81.2)">T</text><text xml:space="preserve" font-family="HelveticaNeue-CondensedBold,Helvetica Neue" font-weight="bold" font-size="72.0" fill="#DDDDDD" transform="matrix(1.00, 0.00, -0.00, -1.00, 281.4, 81.2)">I</text><text xml:space="preserve" font-family="HelveticaNeue-CondensedBold,Helvetica Neue" font-weight="bold" font-size="72.0" fill="#DDDDDD" transform="matrix(1.00, 0.00, -0.00, -1.00, 300.0, 81.2)">V</text><text xml:space="preserve" font-family="HelveticaNeue-CondensedBold,Helvetica Neue" font-weight="bold" font-size="72.0" fill="#DDDDDD" transform="matrix(1.00, 0.00, -0.00, -1.00, 337.3, 81.2)">E</text><text xml:space="preserve" font-family="HelveticaNeue-CondensedBold,Helvetica Neue" font-weight="bold" font-size="72.0" fill="#DDDDDD" transform="matrix(1.00, 0.00, -0.00, -1.00, 372.0, 81.2)"> </text><text xml:space="preserve" font-family="HelveticaNeue-CondensedBold,Helvetica Neue" font-weight="bold" font-size="72.0" fill="#DDDDDD" transform="matrix(1.00, 0.00, -0.00, -1.00, 389.2, 81.2)">3</text><text xml:space="preserve" font-family="HelveticaNeue-CondensedBold,Helvetica Neue" font-weight="bold" font-size="72.0" fill="#DDDDDD" transform="matrix(1.00, 0.00, -0.00, -1.00, 423.8, 81.2)">D</text><text xml:space="preserve" font-family="HelveticaNeue-CondensedBold,Helvetica Neue" font-weight="bold" font-size="72.0" fill="#DDDDDD" transform="matrix(1.00, 0.00, -0.00, -1.00, 465.1, 81.2)"> </text><text xml:space="preserve" font-family="HelveticaNeue-CondensedBold,Helvetica Neue" font-weight="bold" font-size="72.0" fill="#DDDDDD" transform="matrix(1.00, 0.00, -0.00, -1.00, 482.4, 81.2)">R</text><text xml:space="preserve" font-family="HelveticaNeue-CondensedBold,Helvetica Neue" font-weight="bold" font-size="72.0" fill="#DDDDDD" transform="matrix(1.00, 0.00, -0.00, -1.00, 522.4, 81.2)">E</text><text xml:space="preserve" font-family="HelveticaNeue-CondensedBold,Helvetica Neue" font-weight="bold" font-size="72.0" fill="#DDDDDD" transform="matrix(1.00, 0.00, -0.00, -1.00, 557.1, 81.2)">N</text><text xml:space="preserve" font-family="HelveticaNeue-CondensedBold,Helvetica Neue" font-weight="bold" font-size="72.0" fill="#DDDDDD" transform="matrix(1.00, 0.00, -0.00, -1.00, 598.4, 81.2)">D</text><text xml:space="preserve" font-family="HelveticaNeue-CondensedBold,Helvetica Neue" font-weight="bold" font-size="72.0" fill="#DDDDDD" transform="matrix(1.00, 0.00, -0.00, -1.00, 639.7, 81.2)">E</text><text xml:space="preserve" font-family="HelveticaNeue-CondensedBold,Helvetica Neue" font-weight="bold" font-size="72.0" fill="#DDDDDD" transform="matrix(1.00, 0.00, -0.00, -1.00, 674.4, 81.2)">R</text><text xml:space="preserve" font-family="HelveticaNeue-CondensedBold,Helvetica Neue" font-weight="bold" font-size="72.0" fill="#DDDDDD" transform="matrix(1.00, 0.00, -0.00, -1.00, 714.4, 81.2)">I</text><text xml:space="preserve" font-family="HelveticaNeue-CondensedBold,Helvetica Neue" font-weight="bold" font-size="72.0" fill="#DDDDDD" transform="matrix(1.00, 0.00, -0.00, -1.00, 733.0, 81.2)">N</text><text xml:space="preserve" font-family="HelveticaNeue-CondensedBold,Helvetica Neue" font-weight="bold" font-size="72.0" fill="#DDDDDD" transform="matrix(1.00, 0.00, -0.00, -1.00, 774.3, 81.2)">G</text><text xml:space="preserve" font-family="HelveticaNeue-CondensedBold,Helvetica Neue" font-weight="bold" font-size="72.0" fill="#DDDDDD" transform="matrix(1.00, 0.00, -0.00, -1.00, 814.3, 81.2)"> </text><text xml:space="preserve" font-family="HelveticaNeue-CondensedBold,Helvetica Neue" font-weight="bold" font-size="72.0" fill="#DDDDDD" transform="matrix(1.00, 0.00, -0.00, -1.00, -1.0, 2.7)">U</text><text xml:space="preserve" font-family="HelveticaNeue-CondensedBold,Helvetica Neue" font-weight="bold" font-size="72.0" fill="#DDDDDD" transform="matrix(1.00, 0.00, -0.00, -1.00, 37.7, 2.7)">S</text><text xml:space="preserve" font-family="HelveticaNeue-CondensedBold,Helvetica Neue" font-weight="bold" font-size="72.0" fill="#DDDDDD" transform="matrix(1.00, 0.00, -0.00, -1.00, 75.1, 2.7)">I</text><text xml:space="preserve" font-family="HelveticaNeue-CondensedBold,Helvetica Neue" font-weight="bold" font-size="72.0" fill="#DDDDDD" transform="matrix(1.00, 0.00, -0.00, -1.00, 93.7, 2.7)">N</text><text xml:space="preserve" font-family="HelveticaNeue-CondensedBold,Helvetica Neue" font-weight="bold" font-size="72.0" fill="#DDDDDD" transform="matrix(1.00, 0.00, -0.00, -1.00, 135.0, 2.7)">G</text><text xml:space="preserve" font-family="HelveticaNeue-CondensedBold,Helvetica Neue" font-weight="bold" font-size="72.0" fill="#DDDDDD" transform="matrix(1.00, 0.00, -0.00, -1.00, 175.0, 2.7)"> </text><text xml:space="preserve" font-family="HelveticaNeue-CondensedBold,Helvetica Neue" font-weight="bold" font-size="72.0" fill="#DDDDDD" transform="matrix(1.00, 0.00, -0.00, -1.00, 189.7, 2.7)">W</text><text xml:space="preserve" font-family="HelveticaNeue-CondensedBold,Helvetica Neue" font-weight="bold" font-size="72.0" fill="#DDDDDD" transform="matrix(1.00, 0.00, -0.00, -1.00, 244.4, 2.7)">E</text><text xml:space="preserve" font-family="HelveticaNeue-CondensedBold,Helvetica Neue" font-weight="bold" font-size="72.0" fill="#DDDDDD" transform="matrix(1.00, 0.00, -0.00, -1.00, 279.0, 2.7)">B</text><text xml:space="preserve" font-family="HelveticaNeue-CondensedBold,Helvetica Neue" font-weight="bold" font-size="72.0" fill="#DDDDDD" transform="matrix(1.00, 0.00, -0.00, -1.00, 319.0, 2.7)">G</text><text xml:space="preserve" font-family="HelveticaNeue-CondensedBold,Helvetica Neue" font-weight="bold" font-size="72.0" fill="#DDDDDD" transform="matrix(1.00, 0.00, -0.00, -1.00, 359.1, 2.7)">L</text></g></svg>