<?xml version="1.0" encoding="UTF-8" standalone="no"?><svg xmlns="http://www.w3.org/2000/svg" xmlns:xlink="http://www.w3.org/1999/xlink" clip-rule="evenodd" stroke-miterlimit="10" viewBox="0 0 179 32"><desc>SVG generated by Keynote</desc><defs></defs><g transform="matrix(1.00, 0.00, -0.00, -1.00, 0.0, 32.0)"><text xml:space="preserve" font-family="HelveticaNeue,Helvetica Neue" font-size="30.0" fill="#727272" transform="matrix(1.00, 0.00, -0.00, -1.00, 1.6, 7.5)">T</text><text xml:space="preserve" font-family="HelveticaNeue,Helvetica Neue" font-size="30.0" fill="#727272" transform="matrix(1.00, 0.00, -0.00, -1.00, 16.1, 7.5)">r</text><text xml:space="preserve" font-family="HelveticaNeue,Helvetica Neue" font-size="30.0" fill="#727272" transform="matrix(1.00, 0.00, -0.00, -1.00, 26.1, 7.5)">i</text><text xml:space="preserve" font-family="HelveticaNeue,Helvetica Neue" font-size="30.0" fill="#727272" transform="matrix(1.00, 0.00, -0.00, -1.00, 32.7, 7.5)">J</text><text xml:space="preserve" font-family="HelveticaNeue,Helvetica Neue" font-size="30.0" fill="#727272" transform="matrix(1.00, 0.00, -0.00, -1.00, 48.3, 7.5)">S</text><text xml:space="preserve" font-family="HelveticaNeue,Helvetica Neue" font-size="30.0" fill="#727272" transform="matrix(1.00, 0.00, -0.00, -1.00, 67.8, 7.5)"> </text><text xml:space="preserve" font-family="HelveticaNeue,Helvetica Neue" font-size="30.0" fill="#727272" transform="matrix(1.00, 0.00, -0.00, -1.00, 76.1, 7.5)">M</text><text xml:space="preserve" font-family="HelveticaNeue,Helvetica Neue" font-size="30.0" fill="#727272" transform="matrix(1.00, 0.00, -0.00, -1.00, 102.2, 7.5)">e</text><text xml:space="preserve" font-family="HelveticaNeue,Helvetica Neue" font-size="30.0" fill="#727272" transform="matrix(1.00, 0.00, -0.00, -1.00, 118.3, 7.5)">e</text><text xml:space="preserve" font-family="HelveticaNeue,Helvetica Neue" font-size="30.0" fill="#727272" transform="matrix(1.00, 0.00, -0.00, -1.00, 134.4, 7.5)">t</text><text xml:space="preserve" font-family="HelveticaNeue,Helvetica Neue" font-size="30.0" fill="#727272" transform="matrix(1.00, 0.00, -0.00, -1.00, 143.9, 7.5)">u</text><text xml:space="preserve" font-family="HelveticaNeue,Helvetica Neue" font-size="30.0" fill="#727272" transform="matrix(1.00, 0.00, -0.00, -1.00, 160.6, 7.5)">p</text></g></svg>