<?xml version="1.0" encoding="UTF-8" standalone="no"?><svg xmlns="http://www.w3.org/2000/svg" xmlns:xlink="http://www.w3.org/1999/xlink" clip-rule="evenodd" stroke-miterlimit="10" viewBox="0 0 262 29"><desc>SVG generated by Keynote</desc><defs></defs><g transform="matrix(1.00, 0.00, -0.00, -1.00, 0.0, 29.0)"><g><clipPath id="clip0x600000aaa500"><path d="M 0.0 5.6 L 16.8 5.6 L 16.8 22.4 L 0.0 22.4 Z M 0.0 5.6 "></path></clipPath><g clip-path="url(#clip0x600000aaa500)"><path d="M 7.6 21.5 L 7.6 17.0 L 5.4 20.9 L 3.9 20.1 L 6.1 16.2 L 2.3 18.4 L 1.4 17.0 L 5.3 14.7 L 0.8 14.7 L 0.8 13.1 L 5.3 13.1 L 1.4 10.8 L 2.3 9.4 L 6.1 11.6 L 3.9 7.7 L 5.4 6.9 L 7.6 10.8 L 7.6 6.3 L 9.3 6.3 L 9.3 10.8 L 11.5 6.9 L 13.0 7.7 L 10.7 11.6 L 14.6 9.4 L 15.4 10.8 L 11.6 13.1 L 16.0 13.1 L 16.0 14.7 L 11.6 14.7 L 15.4 17.0 L 14.6 18.4 L 10.7 16.2 L 13.0 20.1 L 11.5 20.9 L 9.3 17.0 L 9.3 21.5 Z M 7.6 21.5 " fill="#497493"></path></g></g><text xml:space="preserve" font-family="HelveticaNeue,Helvetica Neue" font-size="36.0" fill="#727272" transform="matrix(1.00, 0.00, -0.00, -1.00, 35.0, 1.7)">U</text><text xml:space="preserve" font-family="HelveticaNeue,Helvetica Neue" font-size="36.0" fill="#727272" transform="matrix(1.00, 0.00, -0.00, -1.00, 61.0, 1.7)">I</text><text xml:space="preserve" font-family="HelveticaNeue,Helvetica Neue" font-size="36.0" fill="#727272" transform="matrix(1.00, 0.00, -0.00, -1.00, 70.3, 1.7)"> </text><text xml:space="preserve" font-family="HelveticaNeue,Helvetica Neue" font-size="36.0" fill="#727272" transform="matrix(1.00, 0.00, -0.00, -1.00, 80.3, 1.7)">F</text><text xml:space="preserve" font-family="HelveticaNeue,Helvetica Neue" font-size="36.0" fill="#727272" transform="matrix(1.00, 0.00, -0.00, -1.00, 101.0, 1.7)">r</text><text xml:space="preserve" font-family="HelveticaNeue,Helvetica Neue" font-size="36.0" fill="#727272" transform="matrix(1.00, 0.00, -0.00, -1.00, 113.0, 1.7)">a</text><text xml:space="preserve" font-family="HelveticaNeue,Helvetica Neue" font-size="36.0" fill="#727272" transform="matrix(1.00, 0.00, -0.00, -1.00, 132.3, 1.7)">m</text><text xml:space="preserve" font-family="HelveticaNeue,Helvetica Neue" font-size="36.0" fill="#727272" transform="matrix(1.00, 0.00, -0.00, -1.00, 163.0, 1.7)">e</text><text xml:space="preserve" font-family="HelveticaNeue,Helvetica Neue" font-size="36.0" fill="#727272" transform="matrix(1.00, 0.00, -0.00, -1.00, 182.3, 1.7)">w</text><text xml:space="preserve" font-family="HelveticaNeue,Helvetica Neue" font-size="36.0" fill="#727272" transform="matrix(1.00, 0.00, -0.00, -1.00, 209.6, 1.7)">o</text><text xml:space="preserve" font-family="HelveticaNeue,Helvetica Neue" font-size="36.0" fill="#727272" transform="matrix(1.00, 0.00, -0.00, -1.00, 230.3, 1.7)">r</text><text xml:space="preserve" font-family="HelveticaNeue,Helvetica Neue" font-size="36.0" fill="#727272" transform="matrix(1.00, 0.00, -0.00, -1.00, 242.3, 1.7)">k</text></g></svg>