<?xml version="1.0" encoding="UTF-8" standalone="no"?><svg xmlns="http://www.w3.org/2000/svg" xmlns:xlink="http://www.w3.org/1999/xlink" clip-rule="evenodd" stroke-miterlimit="10" viewBox="0 0 310 36"><desc>SVG generated by Keynote</desc><defs></defs><g transform="matrix(1.00, 0.00, -0.00, -1.00, 0.0, 36.0)"><g><clipPath id="clip0x6180004ba400"><path d="M 0.0 12.6 L 16.8 12.6 L 16.8 29.4 L 0.0 29.4 Z M 0.0 12.6 "></path></clipPath><g clip-path="url(#clip0x6180004ba400)"><path d="M 7.6 28.5 L 7.6 24.0 L 5.4 27.9 L 3.9 27.1 L 6.1 23.2 L 2.3 25.4 L 1.4 24.0 L 5.3 21.7 L 0.8 21.7 L 0.8 20.1 L 5.3 20.1 L 1.4 17.8 L 2.3 16.4 L 6.1 18.6 L 3.9 14.7 L 5.4 13.9 L 7.6 17.8 L 7.6 13.3 L 9.3 13.3 L 9.3 17.8 L 11.5 13.9 L 13.0 14.7 L 10.7 18.6 L 14.6 16.4 L 15.4 17.8 L 11.6 20.1 L 16.0 20.1 L 16.0 21.7 L 11.6 21.7 L 15.4 24.0 L 14.6 25.4 L 10.7 23.2 L 13.0 27.1 L 11.5 27.9 L 9.3 24.0 L 9.3 28.5 Z M 7.6 28.5 " fill="#497493"></path></g></g><text xml:space="preserve" font-family="HelveticaNeue,Helvetica Neue" font-size="36.0" fill="#727272" transform="matrix(1.00, 0.00, -0.00, -1.00, 35.0, 8.7)">F</text><text xml:space="preserve" font-family="HelveticaNeue,Helvetica Neue" font-size="36.0" fill="#727272" transform="matrix(1.00, 0.00, -0.00, -1.00, 55.7, 8.7)">u</text><text xml:space="preserve" font-family="HelveticaNeue,Helvetica Neue" font-size="36.0" fill="#727272" transform="matrix(1.00, 0.00, -0.00, -1.00, 75.7, 8.7)">l</text><text xml:space="preserve" font-family="HelveticaNeue,Helvetica Neue" font-size="36.0" fill="#727272" transform="matrix(1.00, 0.00, -0.00, -1.00, 83.7, 8.7)">l</text><text xml:space="preserve" font-family="HelveticaNeue,Helvetica Neue" font-size="36.0" fill="#727272" transform="matrix(1.00, 0.00, -0.00, -1.00, 91.7, 8.7)"> </text><text xml:space="preserve" font-family="HelveticaNeue,Helvetica Neue" font-size="36.0" fill="#727272" transform="matrix(1.00, 0.00, -0.00, -1.00, 101.7, 8.7)">g</text><text xml:space="preserve" font-family="HelveticaNeue,Helvetica Neue" font-size="36.0" fill="#727272" transform="matrix(1.00, 0.00, -0.00, -1.00, 122.3, 8.7)">a</text><text xml:space="preserve" font-family="HelveticaNeue,Helvetica Neue" font-size="36.0" fill="#727272" transform="matrix(1.00, 0.00, -0.00, -1.00, 141.7, 8.7)">m</text><text xml:space="preserve" font-family="HelveticaNeue,Helvetica Neue" font-size="36.0" fill="#727272" transform="matrix(1.00, 0.00, -0.00, -1.00, 172.4, 8.7)">e</text><text xml:space="preserve" font-family="HelveticaNeue,Helvetica Neue" font-size="36.0" fill="#727272" transform="matrix(1.00, 0.00, -0.00, -1.00, 191.7, 8.7)"> </text><text xml:space="preserve" font-family="HelveticaNeue,Helvetica Neue" font-size="36.0" fill="#727272" transform="matrix(1.00, 0.00, -0.00, -1.00, 201.7, 8.7)">e</text><text xml:space="preserve" font-family="HelveticaNeue,Helvetica Neue" font-size="36.0" fill="#727272" transform="matrix(1.00, 0.00, -0.00, -1.00, 221.0, 8.7)">n</text><text xml:space="preserve" font-family="HelveticaNeue,Helvetica Neue" font-size="36.0" fill="#727272" transform="matrix(1.00, 0.00, -0.00, -1.00, 241.1, 8.7)">g</text><text xml:space="preserve" font-family="HelveticaNeue,Helvetica Neue" font-size="36.0" fill="#727272" transform="matrix(1.00, 0.00, -0.00, -1.00, 261.7, 8.7)">i</text><text xml:space="preserve" font-family="HelveticaNeue,Helvetica Neue" font-size="36.0" fill="#727272" transform="matrix(1.00, 0.00, -0.00, -1.00, 269.7, 8.7)">n</text><text xml:space="preserve" font-family="HelveticaNeue,Helvetica Neue" font-size="36.0" fill="#727272" transform="matrix(1.00, 0.00, -0.00, -1.00, 289.7, 8.7)">e</text></g></svg>